<?xml version="1.0" encoding="UTF-8"?>
<svg xmlns="http://www.w3.org/2000/svg" viewBox="0 0 1024 1024" role="img" aria-labelledby="title">
  <title id="title">Stitchly symbol mark white</title>
  <path
    fill="#ffffff"
    d="M468 296 C460.55106575 306.51326606 457.71841783 317.1793526 456.35424805 329.85205078 C454.90908609 342.9985614 451.61151005 353.67592135 441.19921875 362.39453125 C429.78895018 370.72422998 416.11264738 370.90042531 402.6875 369 C381.76096988 366.13075481 363.47257299 367.30798943 345.6484375 379.625 C336.29291264 387.13831726 330.29614647 398.66082232 328.46875 410.41796875 C327.13366016 424.33021171 329.91970977 437.3272914 338.1875 448.8125 C346.3126887 458.56272644 358.62085306 464.80674085 371 467 C378.64873504 467.59494597 386.36423872 467.44061072 394.03100586 467.43579102 C411.01781169 467.45881877 427.14417516 469.1830433 440.30859375 481.15625 C449.96085685 491.67788552 453.91363039 504.16661651 453.31640625 518.234375 C452.35307243 529.69923678 447.504579 539.01029529 439.125 546.875 C429.70727449 554.82339241 418.22010566 558.74838176 405.7734375 558.28515625 C388.18580916 556.4768508 372.4117697 550.20745314 356.15332031 543.60351562 C335.37287034 535.24072875 314.00961968 530.8491216 292.546875 539.37109375 C278.40961198 545.75122219 269.68903406 555.69224968 264 570 C259.46191607 582.91922993 261.8819956 597.62496871 267.28515625 609.92578125 C275.10863833 623.93831321 288.11759153 631.93315272 303.06640625 636.65234375 C313.31184213 639.31576826 324.51826085 639.02394019 335.05859375 639.2109375 C335.82610962 639.22528336 336.59362549 639.23962921 337.38439941 639.25440979 C340.51899006 639.31119497 343.6534129 639.36620559 346.78833008 639.40136719 C355.35925539 639.504814 363.72736315 639.8893986 372.1875 641.34375 C373.20117897 641.51516006 373.20117897 641.51516006 374.2353363 641.69003296 C384.51411974 643.63313426 393.85293071 648.34485875 400.44921875 656.59375 C404.89861886 663.49760508 406.98595092 670.85697466 407.39453125 678.98828125 C408.63117829 700.99878669 410.39764488 718.75046383 427.140625 734.70703125 C439.30738653 744.46371024 454.62129592 748.32925173 470 747 C484.84982681 744.88111865 497.18137278 738.32748673 507 727 C515.29620225 715.73246291 518.35757408 703.89606728 517 690 C515.3188673 681.57534064 512.27281485 674.74707795 507 668 C506.34064453 667.07960938 506.34064453 667.07960938 505.66796875 666.140625 C497.97953456 656.12571938 485.24396376 650.69197383 473 649 C470.15621943 648.89902606 467.33208664 648.83968428 464.48828125 648.82421875 C462.82615935 648.80101028 461.16404995 648.77689253 459.50195312 648.75195312 C456.91308314 648.71699812 454.32467197 648.68756343 451.7355957 648.67407227 C438.05107303 648.58904273 425.76871629 647.46976607 415 638 C407.46208017 629.1356651 406.02308813 619.41216608 406.75732422 608.03808594 C407.79932895 599.28692343 412.18951042 591.45916657 418 585 C418.57363281 584.33484375 419.14726562 583.6696875 419.73828125 582.984375 C427.31049136 574.76938929 436.56353394 570.23655691 447 566.6875 C447.71075684 566.44499512 448.42151367 566.20249023 449.15380859 565.95263672 C461.57516594 561.97701567 474.30721577 561.49146814 487.24804688 560.96484375 C504.69180463 560.04538163 521.09185513 555.49583769 534.06640625 543.1640625 C537.3896207 539.44474775 539.80341414 535.46357511 542 531 C542.3403125 530.32710937 542.680625 529.65421875 543.03125 528.9609375 C546.8258353 519.86095979 546.48206802 507.72078943 543.0625 498.5625 C538.23483705 488.67663963 530.81967266 481.76697738 521 477 C520.25105469 476.62230469 519.50210937 476.24460937 518.73046875 475.85546875 C511.36822532 472.67983225 503.65563578 472.12479561 495.77392578 471.2097168 C477.73403236 468.99744235 460.53331944 463.15817221 448.95703125 448.39453125 C442.22632662 438.44916172 439.67007426 429.27918843 439.5625 417.375 C439.55226807 416.50439941 439.54203613 415.63379883 439.53149414 414.73681641 C439.68969404 403.00789802 443.78597912 393.20045726 451.3125 384.25 C461.65739257 375.58915971 470.95162634 372.46133916 484.4375 372.75 C485.39720703 372.75515625 486.35691406 372.7603125 487.34570312 372.765625 C493.12462825 372.82788951 498.82977203 373.18406396 504.57910156 373.765625 C520.55977118 375.31276526 535.274348 370.58525169 548 361 C548.60714844 360.54496094 549.21429687 360.08992188 549.83984375 359.62109375 C557.94331286 352.58338701 563.48553616 340.22779532 564.23828125 329.65234375 C564.53925439 314.58784601 560.15312188 302.16863917 549.625 291.1875 C537.93747569 280.19543168 524.07587837 276.23534115 508.23364258 276.47680664 C492.40845861 277.13689125 478.12995499 283.7374229 468 296 Z M593 384 C583.04183208 395.80784922 580.39014669 408.40977439 578.60668945 423.359375 C577.28698616 433.55421745 574.47548606 441.95472523 568 450 C568 450.66 568 451.32 568 452 C567.41605469 452.27972656 566.83210937 452.55945313 566.23046875 452.84765625 C564.14121992 453.9270405 562.26126866 455.12606449 560.3125 456.4375 C553.51704609 460.6956495 546.93519835 462.28570749 538.96875 462.69140625 C537.99421875 462.84416016 537.99421875 462.84416016 537 463 C536.505 463.99 536.505 463.99 536 465 C537.98593297 466.35879624 539.98337224 467.68759146 542 469 C543.16015625 469.75796875 543.16015625 469.75796875 544.34375 470.53125 C549.46238259 473.75409274 553.95774031 476.26793599 560 477 C560.84691406 477.11730469 561.69382812 477.23460937 562.56640625 477.35546875 C571.08796105 477.96994821 577.4189732 475.0356698 585.02734375 471.69140625 C598.99220632 465.59996655 614.93098445 466.78490357 628.9375 472.125 C643.33333738 478.44286428 651.3658954 487.58519654 657 502 C661.0610261 512.89954154 659.72645151 524.57113354 655 535 C649.42837412 545.77651183 642.39316933 551.94909535 631 556 C622.10240587 558.71399752 613.60095988 558.13639678 604.43725586 557.23657227 C585.5302727 555.39003999 567.03026386 554.90457635 551.20703125 567.1328125 C550.47871094 567.74898437 549.75039063 568.36515625 549 569 C547.92298828 569.89332031 547.92298828 569.89332031 546.82421875 570.8046875 C538.3294347 578.51558375 533.54072558 589.23551863 532.75 600.58984375 C532.14426758 615.38804844 536.06656028 627.85359635 545.890625 639.1796875 C557.52257213 650.58965091 572.72297664 655.39365665 588.63378906 655.29907227 C602.71233556 654.93859959 616.88939096 648.99670414 627.04296875 639.14453125 C638.69306431 626.37825887 641.48796958 612.37040517 643.48120117 595.68188477 C644.87799668 584.64664374 648.19416895 574.30899862 657.296875 567.16015625 C672.79349828 556.60397021 690.7501434 558.87554724 708.4375 560.5078125 C725.884933 562.10190527 741.55384121 559.74467793 755.86328125 548.8125 C763.4007678 541.85833942 770.25981576 531.46260297 771.17700195 520.97631836 C771.57341536 507.15554669 770.34573334 496.47844263 762 485 C761.57074219 484.40574219 761.14148438 483.81148438 760.69921875 483.19921875 C753.13647746 473.59134179 741.99985628 467.83705665 730 466 C726.7731643 465.78904192 723.54386674 465.68040041 720.3125 465.5625 C700.59278179 464.67711765 700.59278179 464.67711765 691.75 457.0625 C684.41209331 448.41425283 686.92878296 433.27560912 687.21484375 422.75976562 C687.42498878 406.68367112 682.42386108 393.88980034 671.34375 382.21875 C659.00120467 370.53447375 644.50012943 367.4824168 628.1015625 367.72265625 C614.87809599 368.21286591 602.11990896 374.40576953 593 384 Z"
  />
</svg>
